<svg width="243" height="191" viewBox="0 0 243 191" fill="none" xmlns="http://www.w3.org/2000/svg">
<path d="M57.7993 42.2566C45.3528 42.2566 35.0003 48.9051 30.0973 59.119C26.8967 65.7864 26.9996 73.9746 26.9996 82.823C26.9996 83.157 27.0022 83.4758 27.0073 83.7801C26.4045 84.0034 25.8395 84.2481 25.3125 84.5133C23.1926 85.5801 21.9375 87.8938 21.9375 89.5841L21.9388 90.0463C21.9514 91.5956 22.0909 93.2719 23.625 96.3451C25.9279 100.958 29.0289 102.424 31.2943 102.889C32.8587 107.565 35.2566 111.623 38.8125 114.938C39.4751 115.556 40.1549 116.117 40.853 116.628L41.5617 120.009L42.1875 128.46L45.7388 157.195H68.0899L72.5625 128.46L73.3761 120.009L73.4322 119.687C82.5627 116.116 91.125 106.513 91.125 88.0915C91.125 64.285 78.3707 42.2566 57.7993 42.2566Z" fill="#E7E5E2"/>
<path d="M57.4934 104.266C57.5379 104.368 57.6513 104.576 57.8431 104.854C58.1712 105.331 58.5971 105.81 59.1292 106.256C61.0043 107.83 63.67 108.618 67.3575 108.187C69.1887 107.973 70.4808 107.207 71.3665 106.038C71.7424 105.543 72.0185 105.006 72.2076 104.469C72.3196 104.152 72.3764 103.912 72.3945 103.791C72.4587 103.362 72.9244 103.059 73.4347 103.112C73.9451 103.166 74.3068 103.557 74.2426 103.986C74.1308 104.733 73.7543 105.801 72.9379 106.878C71.7733 108.415 70.0183 109.456 67.6142 109.736C63.3379 110.236 60.0932 109.276 57.8125 107.362C56.6889 106.419 56.0361 105.471 55.7447 104.804C55.5676 104.399 55.8154 103.95 56.2983 103.801C56.7812 103.652 57.3163 103.86 57.4934 104.266Z" fill="#59514B"/>
<path fill-rule="evenodd" clip-rule="evenodd" d="M77.8252 87.8203C75.7245 88.4473 74.2063 84.9285 74.251 82.4169C74.2587 81.9405 74.4509 79.7423 75.709 79.4849C76.9651 79.2256 77.8019 80.2328 77.9281 80.4114C79.4385 82.5395 80.1219 87.1319 77.8252 87.8203Z" fill="#635E59"/>
<path fill-rule="evenodd" clip-rule="evenodd" d="M54.1278 82.1682C54.2226 81.7012 54.8171 79.5651 56.175 79.4509C57.5346 79.3367 58.2273 80.4178 58.3255 80.6063C59.5197 82.8635 59.4112 87.4453 56.8901 87.8656C54.5862 88.2496 53.6315 84.626 54.1278 82.1682Z" fill="#59514B"/>
<path d="M71.1384 89.2566C71.3383 89.4334 71.5498 89.5851 71.7713 89.7126C72.6341 90.2092 73.5296 90.3012 74.3525 90.1671C74.4727 90.1475 74.5714 90.126 74.54 90.1287C75.824 89.9524 76.6929 90.0879 77.0114 90.4719C78.2617 91.9802 77.8617 93.5775 75.7163 94.8901C74.5887 95.579 73.0362 95.8215 72.2143 95.4642C71.8124 95.2895 71.3424 95.4679 71.1645 95.8627C70.9866 96.2575 71.1683 96.7192 71.5702 96.894C72.9286 97.4846 75.0176 97.1582 76.5573 96.2175C79.4726 94.434 80.1397 91.7697 78.2454 89.4844C77.4679 88.547 76.1072 88.3347 74.3196 88.5802C74.1925 88.6058 74.1478 88.6155 74.092 88.6246C73.6047 88.704 73.0724 88.6494 72.5759 88.3636C72.447 88.2894 72.3227 88.2002 72.2032 88.0946C71.8766 87.8057 71.3734 87.8316 71.0794 88.1525C70.7853 88.4734 70.8117 88.9677 71.1384 89.2566Z" fill="#59514B"/>
<mask id="mask0" mask-type="alpha" maskUnits="userSpaceOnUse" x="15" y="119" width="85" height="71">
<path d="M41.75 119.685C40.9451 119.685 32.2083 123.214 25.1152 130.306C19.5922 135.828 15.1875 144.133 15.1875 150.578V170.321C15.1875 180.808 23.5822 189.31 33.9375 189.31H99.5625V150.578C99.5625 144.146 95.2508 135.855 89.8281 130.34C82.8387 123.231 73.6485 119.685 73 119.685C73 127.313 66.0044 135.509 57.375 135.509C48.8969 135.509 41.996 127.598 41.7564 120.087L41.75 119.685Z" fill="white"/>
</mask>
<g mask="url(#mask0)">
<path d="M41.75 119.685C40.9451 119.685 32.2083 123.214 25.1152 130.306C19.5922 135.828 15.1875 144.133 15.1875 150.578V170.321C15.1875 180.808 23.5822 189.31 33.9375 189.31H99.5625V150.578C99.5625 144.146 95.2508 135.855 89.8281 130.34C82.8387 123.231 73.6485 119.685 73 119.685C73 127.313 66.0044 135.509 57.375 135.509C48.8969 135.509 41.996 127.598 41.7564 120.087L41.75 119.685Z" fill="#0C5472"/>
<path fill-rule="evenodd" clip-rule="evenodd" d="M60.5 189.31L62.9121 134.22C64.8434 129.448 66.4608 126.216 67.7643 124.523C69.2215 122.631 71.7452 120.486 75.3353 118.088C77.4036 119.005 83.0294 122.879 84.6313 124.523C84.6313 124.58 78.4786 126.746 88.625 161.953V189.31H60.5Z" fill="#F79221"/>
<path fill-rule="evenodd" clip-rule="evenodd" d="M54.25 189.31L51.647 133.99C50.0828 129.254 48.6729 125.9 47.4173 123.926C46.3497 122.248 44.2748 120.125 41.1926 117.557C36.8895 119.241 33.4213 121.808 30.1861 124.555C30.1861 124.612 36.2714 126.746 26.125 161.953V189.31H54.25Z" fill="#F79221"/>
<path d="M88.625 166.149H61.5463L61.2859 171.112H88.625V166.149Z" fill="#D8D8D8"/>
<path d="M88.625 179.384H60.9581L60.6976 184.347H88.625V179.384Z" fill="#D8D8D8"/>
<path d="M26.1299 166.149H53.2086L53.469 171.112H26.1299V166.149Z" fill="#D8D8D8"/>
<path d="M26.1299 179.384H53.7804L54.0483 184.347H26.1299V179.384Z" fill="#D8D8D8"/>
</g>
<mask id="mask1" mask-type="alpha" maskUnits="userSpaceOnUse" x="16" y="35" width="81" height="86">
<path d="M23.6192 94.5947C21.9496 89.529 22.8273 86.152 26.1931 84.4634L31.1771 83.0194C32.8616 78.7335 35.9477 75.8378 40.4354 74.3322C43.7077 73.2344 51.3742 71.7994 67.3616 71.7994C80.8247 71.7994 86.7148 74.3322 88.3977 76.865C90.0806 79.3978 90.922 87.6903 89.2391 97.9717C88.1172 104.826 85.3124 110.722 80.8247 115.661C81.6322 115.805 82.4736 116.1 83.349 116.546C84.2244 116.992 85.0658 117.555 85.8734 118.234C91.483 111.48 94.8487 101.912 95.9707 89.529C98.3528 63.2378 80.8255 35.4956 57.2643 35.4956C36.2559 35.4956 16.875 52.9721 16.875 79.3978C16.875 94.6967 20.2406 108.234 26.9719 120.009C29.216 118.826 31.4783 117.953 33.7587 117.39C36.0391 116.827 38.2647 116.546 40.4354 116.546C41.682 116.546 38.7525 114.857 35.3868 109.792C33.2458 106.569 32.1862 104.022 31.5111 101.22C27.7385 100.741 25.0289 98.8719 23.6192 94.5947Z" fill="white"/>
</mask>
<g mask="url(#mask1)">
<path d="M23.6192 94.5947C21.9496 89.529 22.8273 86.152 26.1931 84.4634L31.1771 83.0194C32.8616 78.7335 35.9477 75.8378 40.4354 74.3322C43.7077 73.2344 51.3742 71.7994 67.3616 71.7994C80.8247 71.7994 86.7148 74.3322 88.3977 76.865C90.0806 79.3978 90.922 87.6903 89.2391 97.9717C88.1172 104.826 85.3124 110.722 80.8247 115.661C81.6322 115.805 82.4736 116.1 83.349 116.546C84.2244 116.992 85.0658 117.555 85.8734 118.234C91.483 111.48 94.8487 101.912 95.9707 89.529C98.3528 63.2378 80.8255 35.4956 57.2643 35.4956C36.2559 35.4956 16.875 52.9721 16.875 79.3978C16.875 94.6967 20.2406 108.234 26.9719 120.009C29.216 118.826 31.4783 117.953 33.7587 117.39C36.0391 116.827 38.2647 116.546 40.4354 116.546C41.682 116.546 38.7525 114.857 35.3868 109.792C33.2458 106.569 32.1862 104.022 31.5111 101.22C27.7385 100.741 25.0289 98.8719 23.6192 94.5947Z" fill="#F6B873"/>
<path d="M0 30.4248H114.75V152.124H0V30.4248Z" fill="#8B5F26"/>
</g>
<path d="M186.077 35.4956C198.851 35.4956 209.476 42.2855 214.508 52.7167C217.793 59.5259 217.688 67.8884 217.688 76.9251L217.689 77.0672C218.257 77.2778 218.792 77.5062 219.293 77.7522C221.464 78.8191 222.75 81.1327 222.75 82.823L222.749 83.2853C222.736 84.8346 222.593 86.5109 221.021 89.5841C218.848 93.8346 215.98 95.4129 213.727 95.999C212.144 101.376 209.57 106.007 205.564 109.723C204.686 110.538 203.778 111.257 202.839 111.892L202.838 116.713L197.415 150.434H174.282L167.906 116.713L167.907 114.301C159.264 110.094 151.875 99.9788 151.875 82.3056C151.875 71.7464 152.76 65.1561 155.339 57.9365C160.067 44.7014 169.88 35.4956 186.077 35.4956Z" fill="#E7E5E2"/>
<path d="M182.132 97.1936C182.087 97.3011 181.974 97.5208 181.782 97.8149C181.454 98.3179 181.028 98.8231 180.496 99.2944C178.621 100.955 175.955 101.788 172.267 101.333C170.436 101.107 169.144 100.298 168.258 99.0646C167.883 98.5412 167.607 97.9749 167.417 97.4085C167.305 97.073 167.249 96.8196 167.23 96.6921C167.166 96.2398 166.701 95.9192 166.19 95.9761C165.68 96.0329 165.318 96.4457 165.382 96.898C165.494 97.6867 165.871 98.814 166.687 99.951C167.852 101.573 169.607 102.672 172.011 102.968C176.287 103.496 179.532 102.482 181.813 100.462C182.936 99.4668 183.589 98.466 183.88 97.7621C184.057 97.3342 183.81 96.8599 183.327 96.7029C182.844 96.5459 182.309 96.7656 182.132 97.1936Z" fill="#59514B"/>
<path fill-rule="evenodd" clip-rule="evenodd" d="M161.8 79.8344C163.9 80.4963 165.419 76.782 165.374 74.1308C165.366 73.6279 165.174 71.3077 163.916 71.0359C162.66 70.7623 161.823 71.8253 161.697 72.0139C160.186 74.2602 159.503 79.1078 161.8 79.8344Z" fill="#635E59"/>
<path fill-rule="evenodd" clip-rule="evenodd" d="M185.497 73.8683C185.402 73.3753 184.808 71.1205 183.45 71C182.09 70.8795 181.398 72.0206 181.299 72.2196C180.105 74.6022 180.214 79.4386 182.735 79.8822C185.039 80.2876 185.993 76.4626 185.497 73.8683Z" fill="#59514B"/>
<path d="M168.487 81.3505C168.287 81.5371 168.075 81.6973 167.854 81.8319C166.991 82.356 166.095 82.4531 165.273 82.3116C165.152 82.2909 165.054 82.2682 165.085 82.271C163.801 82.0849 162.932 82.228 162.614 82.6333C161.363 84.2254 161.763 85.9114 163.909 87.2969C165.036 88.0241 166.589 88.2801 167.411 87.903C167.813 87.7185 168.283 87.9069 168.46 88.3236C168.638 88.7404 168.457 89.2277 168.055 89.4122C166.696 90.0356 164.607 89.6911 163.068 88.6981C160.152 86.8155 159.485 84.0032 161.38 81.591C162.157 80.6015 163.518 80.3774 165.305 80.6365C165.432 80.6635 165.477 80.6738 165.533 80.6834C166.02 80.7672 166.553 80.7095 167.049 80.4079C167.178 80.3296 167.302 80.2355 167.422 80.1239C167.748 79.819 168.252 79.8464 168.546 80.1851C168.84 80.5238 168.813 81.0456 168.487 81.3505Z" fill="#59514B"/>
<mask id="mask2" mask-type="alpha" maskUnits="userSpaceOnUse" x="140" y="114" width="92" height="76">
<path d="M202.5 114.938C203.369 114.938 212.805 118.708 220.466 126.283C226.43 132.182 231.188 141.053 231.188 147.937V169.027C231.188 180.229 222.121 189.31 210.938 189.31H140.062V147.937C140.062 141.067 144.719 132.211 150.576 126.319C158.124 118.725 168.05 114.938 168.75 114.938C168.75 123.086 176.305 131.841 185.625 131.841C194.787 131.841 202.243 123.38 202.494 115.353L202.5 114.938Z" fill="white"/>
</mask>
<g mask="url(#mask2)">
<path d="M202.5 114.938C203.369 114.938 212.805 118.708 220.466 126.283C226.43 132.182 231.188 141.053 231.188 147.937V169.027C231.188 180.229 222.121 189.31 210.938 189.31H140.062V147.937C140.062 141.067 144.719 132.211 150.576 126.319C158.124 118.725 168.05 114.938 168.75 114.938C168.75 123.086 176.305 131.841 185.625 131.841C194.787 131.841 202.243 123.38 202.494 115.353L202.5 114.938Z" fill="#0C5472"/>
<path fill-rule="evenodd" clip-rule="evenodd" d="M182.25 189.31L179.645 130.464C177.559 125.367 175.812 121.914 174.405 120.106C172.831 118.084 170.105 115.793 166.228 113.232C163.994 114.212 157.918 118.35 156.188 120.106C156.188 120.166 162.833 122.48 151.875 160.087V189.31H182.25Z" fill="#F79221"/>
<path fill-rule="evenodd" clip-rule="evenodd" d="M189 189.31L191.811 130.218C193.501 125.16 195.023 121.576 196.379 119.468C197.532 117.676 199.773 115.408 203.102 112.665C207.749 114.464 211.495 117.206 214.989 120.14C214.989 120.201 208.417 122.48 219.375 160.087V189.31H189Z" fill="#F79221"/>
<path d="M151.875 164.57H181.12L181.401 169.872H151.875V164.57Z" fill="#D8D8D8"/>
<path d="M151.875 178.707H181.755L182.037 184.008H151.875V178.707Z" fill="#D8D8D8"/>
<path d="M219.37 164.57H190.125L189.844 169.872H219.37V164.57Z" fill="#D8D8D8"/>
<path d="M219.37 178.707H189.508L189.218 184.008H219.37V178.707Z" fill="#D8D8D8"/>
</g>
<mask id="mask3" mask-type="alpha" maskUnits="userSpaceOnUse" x="150" y="49" width="72" height="34">
<path d="M220.97 66.2585C221.419 70.0196 220.184 75.4373 218.388 78.5363C215.663 79.4393 213.341 82.657 211.776 82.799C207.953 83.1459 211.776 79.7422 205.414 71.6728C199.599 66.2585 199.599 53.6024 201.497 51.2135C204.017 48.0404 206.893 52.4209 210.715 49.0667C213.297 48.214 220.065 58.6716 220.97 66.2585ZM158.287 52.3075C158.033 53.6065 155.708 58.8895 154.831 64.0065C153.301 72.935 153.301 76.1578 152.729 76.4373C146.093 71.76 154.07 53.4378 158.287 52.3075Z" fill="white"/>
</mask>
<g mask="url(#mask3)">
<path d="M220.97 66.2585C221.419 70.0196 220.184 75.4373 218.388 78.5363C215.663 79.4393 213.341 82.657 211.776 82.799C207.953 83.1459 211.776 79.7422 205.414 71.6728C199.599 66.2585 199.599 53.6024 201.497 51.2135C204.017 48.0404 206.893 52.4209 210.715 49.0667C213.297 48.214 220.065 58.6716 220.97 66.2585ZM158.287 52.3075C158.033 53.6065 155.708 58.8895 154.831 64.0065C153.301 72.935 153.301 76.1578 152.729 76.4373C146.093 71.76 154.07 53.4378 158.287 52.3075Z" fill="#B9B7B4"/>
<path d="M244.688 8.45132H128.25V141.982H244.688V8.45132Z" fill="#ABABAB"/>
</g>
<mask id="mask4" mask-type="alpha" maskUnits="userSpaceOnUse" x="151" y="77" width="65" height="44">
<path d="M152.161 77.7522C153.007 82.3468 154.454 95.7222 163.712 93.1527C168.417 91.8471 168.417 91.4177 173.309 91.4177C178.201 91.4177 180.304 92.9812 186.465 94.432C211.205 99.7257 212.935 80.6742 214.317 79.7688C215.455 79.7688 216.052 81.4363 215.996 82.8255C215.455 96.3827 209.25 109.867 199.125 114.938C190.874 118.367 189.118 120.009 175.679 120.009C168.962 120.009 160.896 112.61 157.2 106.487C153.032 99.5796 151.102 90.9493 152.161 77.7522ZM172.752 94.6549C165.994 94.6549 162 96.6544 162 99.6928C162 102.731 165.994 108.123 172.752 108.123C181.471 108.738 187.312 103.978 187.312 100.985C187.312 97.992 179.51 94.6549 172.752 94.6549Z" fill="white"/>
</mask>
<g mask="url(#mask4)">
<path d="M152.161 77.7522C153.007 82.3468 154.454 95.7222 163.712 93.1527C168.417 91.8471 168.417 91.4177 173.309 91.4177C178.201 91.4177 180.304 92.9812 186.465 94.432C211.205 99.7257 212.935 80.6742 214.317 79.7688C215.455 79.7688 216.052 81.4363 215.996 82.8255C215.455 96.3827 209.25 109.867 199.125 114.938C190.874 118.367 189.118 120.009 175.679 120.009C168.962 120.009 160.896 112.61 157.2 106.487C153.032 99.5796 151.102 90.9493 152.161 77.7522ZM172.752 94.6549C165.994 94.6549 162 96.6544 162 99.6928C162 102.731 165.994 108.123 172.752 108.123C181.471 108.738 187.312 103.978 187.312 100.985C187.312 97.992 179.51 94.6549 172.752 94.6549Z" fill="#85817F"/>
<path d="M249.75 21.9734H133.312V155.504H249.75V21.9734Z" fill="#ABABAB"/>
</g>
<path d="M182.25 67.6106V65.9204H189V67.6106H182.25Z" fill="#979797"/>
<path d="M170.438 65.9204V70.9912H173.813V65.9204H190.688C194.415 65.9204 197.438 68.9474 197.438 72.6814V72.8859L214.605 75.3027C215.396 75.414 215.985 75.879 215.92 76.3412C215.856 76.8034 215.162 77.0878 214.371 76.9765L197.438 74.5914V76.0619C197.438 79.796 194.415 82.823 190.688 82.823H185.625C179.675 82.823 174.752 78.4162 173.932 72.6831H170.318C169.498 78.4162 164.575 82.823 158.625 82.823H156.938C153.21 82.823 150.188 79.796 150.188 76.0619V72.6814C150.188 68.9474 153.21 65.9204 156.938 65.9204H170.438ZM190.688 67.6106H175.5V70.9912C175.5 76.5922 180.033 81.1327 185.625 81.1327H190.688C193.483 81.1327 195.75 78.8625 195.75 76.0619V72.6814C195.75 69.8809 193.483 67.6106 190.688 67.6106ZM168.75 67.6106H156.938C154.142 67.6106 151.875 69.8809 151.875 72.6814V76.0619C151.875 78.8625 154.142 81.1327 156.938 81.1327H158.625C164.217 81.1327 168.75 76.5922 168.75 70.9912V67.6106Z" fill="#979797"/>
<path d="M168.75 67.6106V65.9204H175.5V67.6106H168.75Z" fill="#979797"/>
</svg>
